<mxfile host="app.diagrams.net" modified="2022-05-07T02:36:49.024Z" agent="5.0 (Windows NT 10.0; Win64; x64) AppleWebKit/537.36 (KHTML, like Gecko) Chrome/99.0.4844.51 Safari/537.36" etag="FLCl1CiLO1cnSvKfRwxY" version="17.5.0" type="github">
  <diagram id="FtHF8-tuiiTphFqlTY1k" name="Page-1">
    <mxGraphModel dx="1422" dy="772" grid="1" gridSize="10" guides="1" tooltips="1" connect="1" arrows="1" fold="1" page="1" pageScale="1" pageWidth="827" pageHeight="1169" math="0" shadow="0">
      <root>
        <mxCell id="0" />
        <mxCell id="1" parent="0" />
        <mxCell id="jvdMhvq9EmM_lFzrDt_4-9" style="edgeStyle=orthogonalEdgeStyle;rounded=0;orthogonalLoop=1;jettySize=auto;html=1;exitX=0.5;exitY=1;exitDx=0;exitDy=0;entryX=0.5;entryY=0;entryDx=0;entryDy=0;" edge="1" parent="1" source="jvdMhvq9EmM_lFzrDt_4-1" target="jvdMhvq9EmM_lFzrDt_4-2">
          <mxGeometry relative="1" as="geometry" />
        </mxCell>
        <mxCell id="jvdMhvq9EmM_lFzrDt_4-10" style="edgeStyle=orthogonalEdgeStyle;rounded=0;orthogonalLoop=1;jettySize=auto;html=1;exitX=0.5;exitY=1;exitDx=0;exitDy=0;" edge="1" parent="1" source="jvdMhvq9EmM_lFzrDt_4-1" target="jvdMhvq9EmM_lFzrDt_4-4">
          <mxGeometry relative="1" as="geometry" />
        </mxCell>
        <mxCell id="jvdMhvq9EmM_lFzrDt_4-11" style="edgeStyle=orthogonalEdgeStyle;rounded=0;orthogonalLoop=1;jettySize=auto;html=1;exitX=0.5;exitY=1;exitDx=0;exitDy=0;entryX=0.5;entryY=0;entryDx=0;entryDy=0;" edge="1" parent="1" source="jvdMhvq9EmM_lFzrDt_4-1" target="jvdMhvq9EmM_lFzrDt_4-3">
          <mxGeometry relative="1" as="geometry">
            <Array as="points">
              <mxPoint x="380" y="115" />
              <mxPoint x="230" y="115" />
            </Array>
          </mxGeometry>
        </mxCell>
        <mxCell id="jvdMhvq9EmM_lFzrDt_4-12" style="edgeStyle=orthogonalEdgeStyle;rounded=0;orthogonalLoop=1;jettySize=auto;html=1;exitX=0.5;exitY=1;exitDx=0;exitDy=0;" edge="1" parent="1" source="jvdMhvq9EmM_lFzrDt_4-1" target="jvdMhvq9EmM_lFzrDt_4-5">
          <mxGeometry relative="1" as="geometry" />
        </mxCell>
        <mxCell id="jvdMhvq9EmM_lFzrDt_4-13" style="edgeStyle=orthogonalEdgeStyle;rounded=0;orthogonalLoop=1;jettySize=auto;html=1;exitX=0.5;exitY=1;exitDx=0;exitDy=0;" edge="1" parent="1" source="jvdMhvq9EmM_lFzrDt_4-1" target="jvdMhvq9EmM_lFzrDt_4-6">
          <mxGeometry relative="1" as="geometry" />
        </mxCell>
        <mxCell id="jvdMhvq9EmM_lFzrDt_4-14" style="edgeStyle=orthogonalEdgeStyle;rounded=0;orthogonalLoop=1;jettySize=auto;html=1;exitX=0.5;exitY=1;exitDx=0;exitDy=0;entryX=0.5;entryY=0;entryDx=0;entryDy=0;" edge="1" parent="1" source="jvdMhvq9EmM_lFzrDt_4-1" target="jvdMhvq9EmM_lFzrDt_4-7">
          <mxGeometry relative="1" as="geometry">
            <Array as="points">
              <mxPoint x="380" y="115" />
              <mxPoint x="560" y="115" />
              <mxPoint x="560" y="210" />
            </Array>
          </mxGeometry>
        </mxCell>
        <mxCell id="jvdMhvq9EmM_lFzrDt_4-15" style="edgeStyle=orthogonalEdgeStyle;rounded=0;orthogonalLoop=1;jettySize=auto;html=1;exitX=0.5;exitY=1;exitDx=0;exitDy=0;entryX=0.5;entryY=0;entryDx=0;entryDy=0;" edge="1" parent="1" source="jvdMhvq9EmM_lFzrDt_4-1" target="jvdMhvq9EmM_lFzrDt_4-8">
          <mxGeometry relative="1" as="geometry" />
        </mxCell>
        <mxCell id="jvdMhvq9EmM_lFzrDt_4-17" style="edgeStyle=orthogonalEdgeStyle;rounded=0;orthogonalLoop=1;jettySize=auto;html=1;exitX=0.5;exitY=1;exitDx=0;exitDy=0;entryX=0.5;entryY=0;entryDx=0;entryDy=0;" edge="1" parent="1" source="jvdMhvq9EmM_lFzrDt_4-1" target="jvdMhvq9EmM_lFzrDt_4-16">
          <mxGeometry relative="1" as="geometry">
            <Array as="points">
              <mxPoint x="380" y="115" />
              <mxPoint x="735" y="115" />
            </Array>
          </mxGeometry>
        </mxCell>
        <mxCell id="jvdMhvq9EmM_lFzrDt_4-1" value="机器人选型" style="rounded=0;whiteSpace=wrap;html=1;" vertex="1" parent="1">
          <mxGeometry x="320" y="20" width="120" height="60" as="geometry" />
        </mxCell>
        <mxCell id="jvdMhvq9EmM_lFzrDt_4-2" value="应用场合" style="rounded=1;whiteSpace=wrap;html=1;" vertex="1" parent="1">
          <mxGeometry x="110" y="150" width="100" height="40" as="geometry" />
        </mxCell>
        <mxCell id="jvdMhvq9EmM_lFzrDt_4-3" value="有效负载" style="rounded=1;whiteSpace=wrap;html=1;" vertex="1" parent="1">
          <mxGeometry x="180" y="210" width="100" height="40" as="geometry" />
        </mxCell>
        <mxCell id="jvdMhvq9EmM_lFzrDt_4-4" value="自由度" style="rounded=1;whiteSpace=wrap;html=1;" vertex="1" parent="1">
          <mxGeometry x="250" y="150" width="100" height="40" as="geometry" />
        </mxCell>
        <mxCell id="jvdMhvq9EmM_lFzrDt_4-5" value="重复定位精度及速度" style="rounded=1;whiteSpace=wrap;html=1;" vertex="1" parent="1">
          <mxGeometry x="320" y="210" width="120" height="40" as="geometry" />
        </mxCell>
        <mxCell id="jvdMhvq9EmM_lFzrDt_4-6" value="本体重量" style="rounded=1;whiteSpace=wrap;html=1;" vertex="1" parent="1">
          <mxGeometry x="430" y="150" width="90" height="40" as="geometry" />
        </mxCell>
        <mxCell id="jvdMhvq9EmM_lFzrDt_4-7" value="刹车和转动惯量" style="rounded=1;whiteSpace=wrap;html=1;" vertex="1" parent="1">
          <mxGeometry x="515" y="210" width="90" height="40" as="geometry" />
        </mxCell>
        <mxCell id="jvdMhvq9EmM_lFzrDt_4-8" value="防护等级" style="rounded=1;whiteSpace=wrap;html=1;" vertex="1" parent="1">
          <mxGeometry x="590" y="150" width="90" height="40" as="geometry" />
        </mxCell>
        <mxCell id="jvdMhvq9EmM_lFzrDt_4-16" value="运动范围" style="rounded=1;whiteSpace=wrap;html=1;" vertex="1" parent="1">
          <mxGeometry x="690" y="210" width="90" height="40" as="geometry" />
        </mxCell>
      </root>
    </mxGraphModel>
  </diagram>
</mxfile>
